<svg width="16" height="16" viewBox="0 0 16 16" fill="none" xmlns="http://www.w3.org/2000/svg">
<path fill-rule="evenodd" clip-rule="evenodd" d="M0.21959 0.21959C0.360235 0.0789863 0.550967 0 0.74984 0C0.948713 0 1.13944 0.0789863 1.28009 0.21959L7.64459 6.58409L14.0091 0.21959C14.1505 0.082971 14.34 0.00737529 14.5366 0.00908411C14.7333 0.0107929 14.9214 0.0896695 15.0605 0.228726C15.1995 0.367782 15.2784 0.555891 15.2801 0.752539C15.2818 0.949186 15.2062 1.13864 15.0696 1.28009L8.70509 7.64459L15.0696 14.0091C15.2062 14.1505 15.2818 14.34 15.2801 14.5366C15.2784 14.7333 15.1995 14.9214 15.0605 15.0605C14.9214 15.1995 14.7333 15.2784 14.5366 15.2801C14.34 15.2818 14.1505 15.2062 14.0091 15.0696L7.64459 8.70509L1.28009 15.0696C1.13864 15.2062 0.949186 15.2818 0.752539 15.2801C0.555891 15.2784 0.367782 15.1995 0.228726 15.0605C0.0896695 14.9214 0.0107929 14.7333 0.00908411 14.5366C0.00737529 14.34 0.082971 14.1505 0.21959 14.0091L6.58409 7.64459L0.21959 1.28009C0.0789863 1.13944 0 0.948713 0 0.74984C0 0.550967 0.0789863 0.360235 0.21959 0.21959Z" fill="black"/>
</svg>
